<svg xmlns="http://www.w3.org/2000/svg" >
    <style>
        :root {
            --mastic-color: #ACACAC;
        }

        /* un carré de mosaique */
        .tile {
            height: 10px;
            width: 10px;
            rx: .3;
            ry: .3;
            stroke: var(--mastic-color);
            stroke-width: 0.2;
        }

        .backg { fill: var(--mastic-color); }
        .bblack { fill: #000000; }
        .bwhite {fill: #FFFFFF}
        .bred {fill: #FF0000}
    </style>
    <defs>
        <pattern id="Black">
            <rect x="0" y="0" class="tile bblack"/>
        </pattern>
        <pattern id="White">
            <rect x="0" y="0" class="tile bwhite"/>
        </pattern>
    </defs>
    <rect x="0" y="0" width="120" height="90" class="backg"/>

    <!-- FOND -->
    <rect x="0" y="0" width="120" height="90" fill="url(#Black)"/>
    <rect x="10" y="30" width="100" height="40" fill="url(#White)"/>
    <rect x="20" y="30" width="10" height="10" class="tile bblack"/>
    <rect x="90" y="30" width="10" height="10" class="tile bblack"/>
    <rect x="10" y="60" width="10" height="10" class="tile bblack"/>
    <rect x="100" y="60" width="10" height="10" class="tile bblack"/>

    <rect x="30" y="10" width="10" height="10" class="tile bwhite"/>
    <rect x="80" y="10" width="10" height="10" class="tile bwhite"/>
    <rect x="40" y="20" width="10" height="10" class="tile bwhite"/>
    <rect x="70" y="20" width="10" height="10" class="tile bwhite"/>

    <rect x="30" y="70" width="10" height="10" class="tile bwhite"/>
    <rect x="80" y="70" width="10" height="10" class="tile bwhite"/>
    <rect x="20" y="80" width="10" height="10" class="tile bwhite"/>
    <rect x="90" y="80" width="10" height="10" class="tile bwhite"/>

    <rect x="40" y="40" width="10" height="10" class="tile bred"/>
    <rect x="70" y="40" width="10" height="10" class="tile bred"/>

    <script type="text/javascript">
        const nbTileWidth = 12;
        const nbTileHeightColor = 9;

        function resizePattern(id, width, height) {
            let pattern = document.getElementById(id);

            lWidth = document.createAttribute("width");
            lWidth.value = width;
            pattern.setAttributeNode(lWidth);

            lEight = document.createAttribute("height");
            lEight.value = height;
            pattern.setAttributeNode(lEight);
        }

        resizePattern("Black", (1 / nbTileWidth), (1 / nbTileHeightColor));
        resizePattern("White", (1 / 10), (1 / 4));
    </script>
</svg>
