<svg xmlns="http://www.w3.org/2000/svg" >
    <style>
        :root {
            --mastic-color: #ACACAC;
        }

        /* un carré de mosaique */
        .tile {
            height: 10px;
            width: 10px;
            rx: .3;
            ry: .3;
            stroke: var(--mastic-color);
            stroke-width: 0.2;
        }

        .backg { fill: var(--mastic-color); }
        .bwhite { fill: #FFFFFF; }
        .byellow {fill: #FFCC33}
        .borange {fill: #FF4E12}
    </style>
    <defs>
        <pattern id="Yellow">
            <rect x="0" y="0" class="tile byellow"/>
        </pattern>
        <pattern id="Orange">
            <rect x="0" y="0" class="tile borange"/>
        </pattern>
    </defs>
    <rect x="0" y="0" width="120" height="90" class="backg"/>

    <!-- FOND -->
    <rect x="0" y="0" width="120" height="90" fill="url(#Yellow)"/>
    <rect x="90" y="30" width="30" height="30" fill="url(#Orange)"/>
    <rect x="90" y="60" width="30" height="30" fill="url(#Orange)"/>
    <rect x="60" y="60" width="30" height="30" fill="url(#Orange)"/>
    <rect x="30" y="60" width="30" height="30" fill="url(#Orange)"/>
    <rect x="90" y="10" width="30" height="30" fill="url(#Orange)"/>
    <rect x="70" y="30" width="30" height="30" fill="url(#Orange)"/>
    <rect x="50" y="40" width="30" height="30" fill="url(#Orange)"/>

    <rect x="110" y="0" width="10" height="10" class="tile borange"/>
    <rect x="80" y="20" width="10" height="10" class="tile borange"/>
    <rect x="40" y="50" width="10" height="10" class="tile borange"/>
    <rect x="30" y="60" width="10" height="10" class="tile borange"/>
    <rect x="20" y="70" width="10" height="10" class="tile borange"/>
    <rect x="10" y="70" width="10" height="10" class="tile borange"/>
    <rect x="0" y="80" width="10" height="10" class="tile borange"/>
    <rect x="10" y="80" width="10" height="10" class="tile borange"/>
    <rect x="20" y="80" width="10" height="10" class="tile borange"/>

    <rect x="20" y="60" width="10" height="10" class="tile bwhite"/>
    <rect x="40" y="40" width="10" height="10" class="tile bwhite"/>
    <rect x="30" y="50" width="10" height="10" class="tile bwhite"/>
    <rect x="50" y="40" width="10" height="10" class="tile bwhite"/>
    <rect x="60" y="40" width="10" height="10" class="tile bwhite"/>
    <rect x="60" y="30" width="10" height="10" class="tile bwhite"/>
    <rect x="60" y="20" width="10" height="10" class="tile bwhite"/>
    <rect x="70" y="20" width="10" height="10" class="tile bwhite"/>
    <rect x="80" y="20" width="10" height="10" class="tile bwhite"/>
    <rect x="70" y="10" width="10" height="10" class="tile bwhite"/>
    <rect x="50" y="50" width="10" height="10" class="tile bwhite"/>
    <rect x="40" y="60" width="10" height="10" class="tile bwhite"/>
    <rect x="70" y="50" width="10" height="10" class="tile bwhite"/>

    <rect x="70" y="40" width="10" height="10" class="tile bwhite"/>
    <rect x="80" y="40" width="10" height="10" class="tile bwhite"/>

    <script type="text/javascript">
        const nbTileWidth = 12;
        const nbTileHeightRedColor = 2;
        const nbTileHeightYellowColor = 5;

        function resizePattern(id, width, height) {
            let pattern = document.getElementById(id);

            lWidth = document.createAttribute("width");
            lWidth.value = width;
            pattern.setAttributeNode(lWidth);

            lEight = document.createAttribute("height");
            lEight.value = height;
            pattern.setAttributeNode(lEight);
        }

        resizePattern("Yellow", (1 / 12), (1 / 9));
        resizePattern("Orange", (1 / 3), (1 / 3));

    </script>
</svg>
