<svg xmlns="http://www.w3.org/2000/svg" >
    <style>
        :root {
            --mastic-color: #ACACAC;
        }

        /* un carré de mosaique */
        .tile {
            height: 10px;
            width: 10px;
            rx: .3;
            ry: .3;
            stroke: var(--mastic-color);
            stroke-width: 0.2;
        }

        .backg { fill: var(--mastic-color); }
        .bwhite { fill: #FFFFFF; }
        .bred { fill: #C8102E; }
        .bblue { fill: #012169; }
    </style>
    <defs>
        <pattern id="White1">
            <rect x="0" y="0" class="tile bwhite"/>
        </pattern>
        <pattern id="White2">
            <rect x="0" y="0" class="tile bwhite"/>
        </pattern>
        <pattern id="Red1">
            <rect x="0" y="0" class="tile bred"/>
        </pattern>
        <pattern id="Red2">
            <rect x="0" y="0" class="tile bred"/>
        </pattern>
        <pattern id="Blue">
            <rect x="0" y="0" class="tile bblue"/>
        </pattern>
    </defs>
    <rect x="0" y="0" width="120" height="100" class="backg"/>

    <!-- FOND -->
    <rect x="0" y="0" width="120" height="100" fill="url(#Blue)"/>
    <rect x="40" y="0" width="40" height="100" fill="url(#White1)"/>
    <rect x="0" y="30" width="120" height="40" fill="url(#White2)"/>
    <rect x="50" y="0" width="20" height="100" fill="url(#Red1)"/>
    <rect x="0" y="40" width="120" height="20" fill="url(#Red2)"/>

    <rect x="0" y="0" width="10" height="10" class="tile bred"/>
    <rect x="10" y="10" width="10" height="10" class="tile bred"/>
    <rect x="20" y="10" width="10" height="10" class="tile bwhite"/>
    <rect x="30" y="20" width="10" height="10" class="tile bred"/>

    <rect x="110" y="0" width="10" height="10" class="tile bred"/>
    <rect x="100" y="10" width="10" height="10" class="tile bwhite"/>
    <rect x="90" y="10" width="10" height="10" class="tile bred"/>
    <rect x="80" y="20" width="10" height="10" class="tile bred"/>

    <rect x="110" y="90" width="10" height="10" class="tile bred"/>
    <rect x="100" y="80" width="10" height="10" class="tile bred"/>
    <rect x="90" y="80" width="10" height="10" class="tile bwhite"/>
    <rect x="80" y="70" width="10" height="10" class="tile bred"/>

    <rect x="0" y="90" width="10" height="10" class="tile bred"/>
    <rect x="10" y="80" width="10" height="10" class="tile bwhite"/>
    <rect x="20" y="80" width="10" height="10" class="tile bred"/>
    <rect x="30" y="70" width="10" height="10" class="tile bred"/>

    <script type="text/javascript">
        const nbTileWidth = 12;
        const nbTileHeightRedColor = 10;

        function resizePattern(id, width, height) {
            let pattern = document.getElementById(id);

            lWidth = document.createAttribute("width");
            lWidth.value = width;
            pattern.setAttributeNode(lWidth);

            lEight = document.createAttribute("height");
            lEight.value = height;
            pattern.setAttributeNode(lEight);
        }

        resizePattern("Blue", (1 / nbTileWidth), (1 / nbTileHeightRedColor));
        resizePattern("White1", (1 / 4), (1 / 10));
        resizePattern("White2", (1 / 12), (1 / 4));
        resizePattern("Red1", (1 / 2), (1 / 10));
        resizePattern("Red2", (1 / 12), (1 / 2));
    </script>
</svg>
