<svg xmlns="http://www.w3.org/2000/svg" >
    <style>
        :root {
            --mastic-color: #ACACAC;
        }

        /* un carré de mosaique */
        .tile {
            height: 10px;
            width: 10px;
            rx: .3;
            ry: .3;
            stroke: var(--mastic-color);
            stroke-width: 0.2;
        }

        .backg { fill: var(--mastic-color); }
        .bwhite { fill: #FFFFFF; }
        .bred { fill: #CD2E3A; }
        .bblue { fill: #0047A0; }
        .bblack { fill: #000000; }
    </style>
    <defs>
        <pattern id="White">
            <rect x="0" y="0" class="tile bwhite"/>
        </pattern>
        <pattern id="Red1">
            <rect x="0" y="0" class="tile bred"/>
        </pattern>
        <pattern id="Red2">
            <rect x="0" y="0" class="tile bred"/>
        </pattern>
        <pattern id="Red3">
            <rect x="0" y="0" class="tile bred"/>
        </pattern>
    </defs>
    <rect x="0" y="0" width="120" height="100" class="backg"/>

    <!-- FOND -->
    <rect x="0" y="0" width="120" height="100" fill="url(#White)"/>
    <rect x="50" y="20" width="20" height="60" fill="url(#Red1)"/>
    <rect x="40" y="30" width="40" height="40" fill="url(#Red2)"/>
    <rect x="30" y="40" width="60" height="20" fill="url(#Red3)"/>
    <rect x="30" y="50" width="10" height="10" class="bblue"/>
    <rect x="40" y="60" width="10" height="10" class="bblue"/>
    <rect x="50" y="60" width="10" height="10" class="bblue"/>
    <rect x="50" y="70" width="10" height="10" class="bblue"/>
    <rect x="60" y="40" width="10" height="10" class="bblue"/>
    <rect x="60" y="50" width="10" height="10" class="bblue"/>
    <rect x="60" y="60" width="10" height="10" class="bblue"/>
    <rect x="60" y="70" width="10" height="10" class="bblue"/>
    <rect x="70" y="40" width="10" height="10" class="bblue"/>

    <rect x="70" y="50" width="10" height="10" class="bblue"/>
    <rect x="70" y="60" width="10" height="10" class="bblue"/>
    <rect x="80" y="50" width="10" height="10" class="bblue"/>

    <rect x="30" y="10" width="10" height="10" class="bblack"/>
    <rect x="20" y="20" width="10" height="10" class="bblack"/>

    <rect x="30" y="80" width="10" height="10" class="bblack"/>
    <rect x="20" y="70" width="10" height="10" class="bblack"/>

    <rect x="80" y="10" width="10" height="10" class="bblack"/>
    <rect x="90" y="20" width="10" height="10" class="bblack"/>

    <rect x="80" y="80" width="10" height="10" class="bblack"/>
    <rect x="90" y="70" width="10" height="10" class="bblack"/>


    <script type="text/javascript">
        const nbTileWidth = 12;
        const nbTileHeightColor = 10;

        function resizePattern(id, width, height) {
            let pattern = document.getElementById(id);

            lWidth = document.createAttribute("width");
            lWidth.value = width;
            pattern.setAttributeNode(lWidth);

            lEight = document.createAttribute("height");
            lEight.value = height;
            pattern.setAttributeNode(lEight);
        }

        resizePattern("White", (1 / nbTileWidth), (1 / nbTileHeightColor));
        resizePattern("Red1", (1 / 2), (1 / 6));
        resizePattern("Red2", (1 / 4), (1 / 4));
        resizePattern("Red3", (1 / 6), (1 / 2));

    </script>
</svg>
