<svg xmlns="http://www.w3.org/2000/svg" >
    <style>
        :root {
            --mastic-color: #ACACAC;
        }

        /* un carré de mosaique */
        .tile {
            height: 10px;
            width: 10px;
            rx: .3;
            ry: .3;
            stroke: var(--mastic-color);
            stroke-width: 0.2;
        }

        .backg { fill: var(--mastic-color); }
        .bblue { fill: #003893; }
        .bwhite {fill: #FFFFFF}
        .bred {fill: #DC143C}
    </style>
    <defs>
        <pattern id="Blue1">
            <rect x="0" y="0" class="tile bblue"/>
        </pattern>
        <pattern id="Blue2">
            <rect x="0" y="0" class="tile bblue"/>
        </pattern>
        <pattern id="White">
            <rect x="0" y="0" class="tile bwhite"/>
        </pattern>
        <pattern id="Red">
            <rect x="0" y="0" class="tile bred"/>
        </pattern>
    </defs>
    <rect x="0" y="0" width="120" height="90" class="backg"/>

    <!-- FOND -->
    <rect x="0" y="0" width="120" height="90" fill="url(#White)"/>

    <rect x="0" y="0" width="30" height="30" fill="url(#Red)"/>
    <rect x="10" y="50" width="30" height="30" fill="url(#Red)"/>
    <rect x="10" y="20" width="30" height="30" fill="url(#Red)"/>
    <rect x="0" y="0" width="30" height="30" fill="url(#Red)"/>
    <rect x="40" y="20" width="30" height="30" fill="url(#Red)"/>
    <rect x="40" y="60" width="30" height="30" fill="url(#Red)"/>

    <rect x="0" y="0" width="10" height="90" fill="url(#Blue1)"/>
    <rect x="10" y="40" width="70" height="10" fill="url(#Blue2)"/>
    <rect x="10" y="80" width="70" height="10" fill="url(#Blue2)"/>

    <rect x="10" y="0" width="10" height="10" class="tile bblue"/>
    <rect x="20" y="0" width="10" height="10" class="tile bblue"/>
    <rect x="30" y="10" width="10" height="10" class="tile bblue"/>
    <rect x="40" y="10" width="10" height="10" class="tile bblue"/>
    <rect x="50" y="20" width="10" height="10" class="tile bblue"/>
    <rect x="60" y="20" width="10" height="10" class="tile bblue"/>
    <rect x="70" y="30" width="10" height="10" class="tile bblue"/>

    <rect x="50" y="50" width="10" height="10" class="tile bblue"/>
    <rect x="60" y="60" width="10" height="10" class="tile bblue"/>
    <rect x="70" y="70" width="10" height="10" class="tile bblue"/>

    <rect x="10" y="40" width="10" height="10" class="tile bred"/>
    <rect x="20" y="40" width="10" height="10" class="tile bred"/>
    <rect x="30" y="40" width="10" height="10" class="tile bred"/>
    <rect x="40" y="50" width="10" height="10" class="tile bred"/>

    <rect x="20" y="50" width="10" height="10" class="tile bwhite"/>
    <rect x="30" y="50" width="10" height="10" class="tile bwhite"/>
    <rect x="20" y="60" width="10" height="10" class="tile bwhite"/>
    <rect x="30" y="60" width="10" height="10" class="tile bwhite"/>

    <rect x="20" y="30" width="10" height="10" class="tile bwhite"/>
    <rect x="30" y="30" width="10" height="10" class="tile bwhite"/>

    <script type="text/javascript">
        const nbTileWidth = 12;
        const nbTileHeightColor = 9;

        function resizePattern(id, width, height) {
            let pattern = document.getElementById(id);

            lWidth = document.createAttribute("width");
            lWidth.value = width;
            pattern.setAttributeNode(lWidth);

            lEight = document.createAttribute("height");
            lEight.value = height;
            pattern.setAttributeNode(lEight);
        }

        resizePattern("White", (1 / nbTileWidth), (1 / nbTileHeightColor));
        resizePattern("Blue2", (1 / 7), (1 / 1));
        resizePattern("Blue1", (1 / 1), (1 / 9));
        resizePattern("Red", (1 / 3), (1 / 3));
    </script>
</svg>
