<svg xmlns="http://www.w3.org/2000/svg" >
    <style>
        :root {
            --mastic-color: #ACACAC;
        }

        /* un carré de mosaique */
        .tile {
            height: 10px;
            width: 10px;
            rx: .3;
            ry: .3;
            stroke: var(--mastic-color);
            stroke-width: 0.2;
        }

        .backg { fill: var(--mastic-color); }
        .bwhite { fill: #FFFFFF; }
        .bred { fill: #E30A17; }
    </style>
    <defs>
        <pattern id="White">
            <rect x="0" y="0" class="tile bwhite"/>
        </pattern>
        <pattern id="White2">
            <rect x="0" y="0" class="tile bwhite"/>
        </pattern>
        <pattern id="Red">
            <rect x="0" y="0" class="tile bred"/>
        </pattern>
    </defs>
    <rect x="0" y="0" width="120" height="100" class="backg"/>

    <!-- FOND -->
    <rect x="0" y="0" width="120" height="100" fill="url(#Red)"/>
    <rect x="10" y="20" width="50" height="60" fill="url(#White)"/>
    <rect x="20" y="20" width="10" height="10" class="tile bred"/>
    <rect x="10" y="30" width="10" height="10" class="tile bred"/>
    <rect x="10" y="20" width="10" height="10" class="tile bred"/>
    <rect x="10" y="60" width="10" height="10" class="tile bred"/>
    <rect x="10" y="70" width="10" height="10" class="tile bred"/>
    <rect x="20" y="70" width="10" height="10" class="tile bred"/>

    <rect x="50" y="20" width="10" height="10" class="tile bred"/>
    <rect x="50" y="70" width="10" height="10" class="tile bred"/>

    <rect x="40" y="30" width="10" height="10" class="tile bred"/>
    <rect x="40" y="60" width="10" height="10" class="tile bred"/>
    <rect x="30" y="40" width="10" height="10" class="tile bred"/>
    <rect x="30" y="50" width="10" height="10" class="tile bred"/>
    <rect x="40" y="40" width="10" height="10" class="tile bred"/>
    <rect x="40" y="50" width="10" height="10" class="tile bred"/>
    <rect x="50" y="40" width="10" height="10" class="tile bred"/>
    <rect x="50" y="50" width="10" height="10" class="tile bred"/>

    <rect x="70" y="40" width="10" height="10" class="tile bwhite"/>
    <rect x="70" y="50" width="10" height="10" class="tile bwhite"/>
    <rect x="80" y="40" width="10" height="10" class="tile bwhite"/>
    <rect x="80" y="50" width="10" height="10" class="tile bwhite"/>


    <script type="text/javascript">
        const nbTileWidth = 12;
        const nbTileHeightRedColor = 10;

        function resizePattern(id, width, height) {
            let pattern = document.getElementById(id);

            lWidth = document.createAttribute("width");
            lWidth.value = width;
            pattern.setAttributeNode(lWidth);

            lEight = document.createAttribute("height");
            lEight.value = height;
            pattern.setAttributeNode(lEight);
        }

        resizePattern("Red", (1 / nbTileWidth), (1 / nbTileHeightRedColor));
        resizePattern("White", (1 / 5), (1 / 6));

    </script>
</svg>
