<svg xmlns="http://www.w3.org/2000/svg" >
    <style>
        :root {
            --mastic-color: #ACACAC;
        }

        /* un carré de mosaique */
        .tile {
            height: 10px;
            width: 10px;
            rx: .3;
            ry: .3;
            stroke: var(--mastic-color);
            stroke-width: 0.2;
        }

        .backg { fill: var(--mastic-color); }
        .bblack { fill: #000000; }
        .bgreen {fill: #1EB53A}
        .bblue {fill: #00A3DD}
        .byellow {fill: #FCD116}
    </style>
    <defs>
        <pattern id="Black">
            <rect x="0" y="0" class="tile bblack"/>
        </pattern>
        <pattern id="Blue">
            <rect x="0" y="0" class="tile bblue"/>
        </pattern>
        <pattern id="Green">
            <rect x="0" y="0" class="tile bgreen"/>
        </pattern>
    </defs>
    <rect x="0" y="0" width="120" height="90" class="backg"/>

    <!-- FOND -->
    <rect x="0" y="0" width="120" height="90" fill="url(#Blue)"/>
    <rect x="0" y="0" width="90" height="50" fill="url(#Green)"/>

    <rect x="0" y="70" width="20" height="20" fill="url(#Black)"/>
    <rect x="10" y="60" width="20" height="20" fill="url(#Black)"/>
    <rect x="30" y="50" width="20" height="20" fill="url(#Black)"/>
    <rect x="40" y="40" width="20" height="20" fill="url(#Black)"/>
    <rect x="60" y="30" width="20" height="20" fill="url(#Black)"/>
    <rect x="70" y="20" width="20" height="20" fill="url(#Black)"/>
    <rect x="90" y="10" width="20" height="20" fill="url(#Black)"/>
    <rect x="100" y="0" width="20" height="20" fill="url(#Black)"/>

    <rect x="90" y="0" width="10" height="10" class="tile byellow"/>
    <rect x="80" y="10" width="10" height="10" class="tile byellow"/>
    <rect x="70" y="10" width="10" height="10" class="tile byellow"/>
    <rect x="60" y="20" width="10" height="10" class="tile byellow"/>
    <rect x="50" y="30" width="10" height="10" class="tile byellow"/>
    <rect x="40" y="30" width="10" height="10" class="tile byellow"/>
    <rect x="30" y="40" width="10" height="10" class="tile byellow"/>
    <rect x="20" y="50" width="10" height="10" class="tile byellow"/>
    <rect x="10" y="50" width="10" height="10" class="tile byellow"/>
    <rect x="0" y="60" width="10" height="10" class="tile byellow"/>

    <rect x="110" y="20" width="10" height="10" class="tile byellow"/>
    <rect x="100" y="30" width="10" height="10" class="tile byellow"/>
    <rect x="90" y="30" width="10" height="10" class="tile byellow"/>
    <rect x="80" y="40" width="10" height="10" class="tile byellow"/>
    <rect x="70" y="50" width="10" height="10" class="tile byellow"/>
    <rect x="60" y="50" width="10" height="10" class="tile byellow"/>
    <rect x="50" y="60" width="10" height="10" class="tile byellow"/>
    <rect x="40" y="70" width="10" height="10" class="tile byellow"/>
    <rect x="30" y="70" width="10" height="10" class="tile byellow"/>
    <rect x="20" y="80" width="10" height="10" class="tile byellow"/>

    <rect x="0" y="50" width="10" height="10" class="tile bgreen"/>

    <script type="text/javascript">
        const nbTileWidth = 12;
        const nbTileHeightColor = 9;

        function resizePattern(id, width, height) {
            let pattern = document.getElementById(id);

            lWidth = document.createAttribute("width");
            lWidth.value = width;
            pattern.setAttributeNode(lWidth);

            lEight = document.createAttribute("height");
            lEight.value = height;
            pattern.setAttributeNode(lEight);
        }

        resizePattern("Blue", (1 / nbTileWidth), (1 / nbTileHeightColor));
        resizePattern("Black", (1 / 2), (1 / 2));
        resizePattern("Green", (1 / 9), (1 / 5));
    </script>
</svg>
