<svg xmlns="http://www.w3.org/2000/svg" >
    <style>
        :root {
            --mastic-color: #ACACAC;
        }

        /* un carré de mosaique */
        .tile {
            height: 10px;
            width: 10px;
            rx: .3;
            ry: .3;
            stroke: var(--mastic-color);
            stroke-width: 0.2;
        }

        .backg { fill: var(--mastic-color); }
        .bwhite { fill: #FFFFFF; }
        .bred { fill: #C30C3E; }
        .bblue {fill: #00204E}
    </style>
    <defs>
        <pattern id="Blue">
            <rect x="0" y="0" class="tile bblue"/>
        </pattern>
        <pattern id="Red">
            <rect x="0" y="0" class="tile bred"/>
        </pattern>
        <pattern id="White">
            <rect x="0" y="0" class="tile bwhite"/>
        </pattern>
    </defs>
    <rect x="0" y="0" width="120" height="90" class="backg"/>

    <!-- FOND -->
    <rect x="0" y="0" width="120" height="10" fill="url(#Red)"/>
    <rect x="0" y="10" width="120" height="10" fill="url(#White)"/>
    <rect x="0" y="20" width="120" height="10" fill="url(#Red)"/>
    <rect x="0" y="30" width="120" height="10" fill="url(#White)"/>
    <rect x="0" y="40" width="120" height="10" fill="url(#Red)"/>
    <rect x="0" y="50" width="120" height="10" fill="url(#White)"/>
    <rect x="0" y="60" width="120" height="10" fill="url(#Red)"/>
    <rect x="0" y="70" width="120" height="10" fill="url(#White)"/>
    <rect x="0" y="80" width="120" height="10" fill="url(#Red)"/>
    <rect x="0" y="0" width="60" height="50" fill="url(#Blue)"/>

    <rect x="0" y="10" width="10" height="10" class="bwhite"/>
    <rect x="20" y="10" width="10" height="10" class="bwhite"/>
    <rect x="40" y="10" width="10" height="10" class="bwhite"/>

    <rect x="10" y="20" width="10" height="10" class="bwhite"/>
    <rect x="30" y="20" width="10" height="10" class="bwhite"/>

    <rect x="0" y="30" width="10" height="10" class="bwhite"/>
    <rect x="20" y="30" width="10" height="10" class="bwhite"/>
    <rect x="40" y="30" width="10" height="10" class="bwhite"/>


    <script type="text/javascript">
        const nbTileWidth = 12;
        const nbTileHeightColor = 1;


        function resizePattern(id, width, height) {
            let pattern = document.getElementById(id);

            lWidth = document.createAttribute("width");
            lWidth.value = width;
            pattern.setAttributeNode(lWidth);

            lEight = document.createAttribute("height");
            lEight.value = height;
            pattern.setAttributeNode(lEight);
        }

        resizePattern("Red", (1 / nbTileWidth), (1 / nbTileHeightColor));
        resizePattern("White", (1 / nbTileWidth), (1 / nbTileHeightColor));
        resizePattern("Blue", (1 / 6), (1 / 5));

    </script>
</svg>
